<mxfile host="app.diagrams.net" agent="Mozilla/5.0 (Windows NT 10.0; Win64; x64) AppleWebKit/537.36 (KHTML, like Gecko) Chrome/140.0.0.0 Safari/537.36" version="28.2.3">
  <diagram name="Page-1" id="kx8QH5k1n3yoKS3YDBHb">
    <mxGraphModel dx="1947" dy="597" grid="1" gridSize="10" guides="1" tooltips="1" connect="1" arrows="1" fold="1" page="1" pageScale="1" pageWidth="850" pageHeight="1100" math="0" shadow="0">
      <root>
        <mxCell id="0" />
        <mxCell id="1" parent="0" />
        <mxCell id="ZNvzEh4O6FYDQVQDNs5I-161" style="edgeStyle=orthogonalEdgeStyle;rounded=0;orthogonalLoop=1;jettySize=auto;html=1;dashed=1;endArrow=none;endFill=0;" edge="1" parent="1" target="ZNvzEh4O6FYDQVQDNs5I-152">
          <mxGeometry relative="1" as="geometry">
            <mxPoint x="720" y="630" as="sourcePoint" />
          </mxGeometry>
        </mxCell>
        <mxCell id="ZNvzEh4O6FYDQVQDNs5I-5" value="User" style="swimlane;fontStyle=0;childLayout=stackLayout;horizontal=1;startSize=30;horizontalStack=0;resizeParent=1;resizeParentMax=0;resizeLast=0;collapsible=1;marginBottom=0;whiteSpace=wrap;html=1;" vertex="1" parent="1">
          <mxGeometry x="410" y="530" width="140" height="240" as="geometry" />
        </mxCell>
        <mxCell id="ZNvzEh4O6FYDQVQDNs5I-6" value="id: PK" style="text;strokeColor=none;fillColor=none;align=left;verticalAlign=middle;spacingLeft=4;spacingRight=4;overflow=hidden;points=[[0,0.5],[1,0.5]];portConstraint=eastwest;rotatable=0;whiteSpace=wrap;html=1;" vertex="1" parent="ZNvzEh4O6FYDQVQDNs5I-5">
          <mxGeometry y="30" width="140" height="30" as="geometry" />
        </mxCell>
        <mxCell id="ZNvzEh4O6FYDQVQDNs5I-7" value="email: String" style="text;strokeColor=none;fillColor=none;align=left;verticalAlign=middle;spacingLeft=4;spacingRight=4;overflow=hidden;points=[[0,0.5],[1,0.5]];portConstraint=eastwest;rotatable=0;whiteSpace=wrap;html=1;" vertex="1" parent="ZNvzEh4O6FYDQVQDNs5I-5">
          <mxGeometry y="60" width="140" height="30" as="geometry" />
        </mxCell>
        <mxCell id="ZNvzEh4O6FYDQVQDNs5I-8" value="firstName: String" style="text;strokeColor=none;fillColor=none;align=left;verticalAlign=middle;spacingLeft=4;spacingRight=4;overflow=hidden;points=[[0,0.5],[1,0.5]];portConstraint=eastwest;rotatable=0;whiteSpace=wrap;html=1;" vertex="1" parent="ZNvzEh4O6FYDQVQDNs5I-5">
          <mxGeometry y="90" width="140" height="30" as="geometry" />
        </mxCell>
        <mxCell id="ZNvzEh4O6FYDQVQDNs5I-15" value="lastName: String" style="text;strokeColor=none;fillColor=none;align=left;verticalAlign=middle;spacingLeft=4;spacingRight=4;overflow=hidden;points=[[0,0.5],[1,0.5]];portConstraint=eastwest;rotatable=0;whiteSpace=wrap;html=1;" vertex="1" parent="ZNvzEh4O6FYDQVQDNs5I-5">
          <mxGeometry y="120" width="140" height="30" as="geometry" />
        </mxCell>
        <mxCell id="ZNvzEh4O6FYDQVQDNs5I-16" value="password: String" style="text;strokeColor=none;fillColor=none;align=left;verticalAlign=middle;spacingLeft=4;spacingRight=4;overflow=hidden;points=[[0,0.5],[1,0.5]];portConstraint=eastwest;rotatable=0;whiteSpace=wrap;html=1;" vertex="1" parent="ZNvzEh4O6FYDQVQDNs5I-5">
          <mxGeometry y="150" width="140" height="30" as="geometry" />
        </mxCell>
        <mxCell id="ZNvzEh4O6FYDQVQDNs5I-99" value="password: String" style="text;strokeColor=none;fillColor=none;align=left;verticalAlign=middle;spacingLeft=4;spacingRight=4;overflow=hidden;points=[[0,0.5],[1,0.5]];portConstraint=eastwest;rotatable=0;whiteSpace=wrap;html=1;" vertex="1" parent="ZNvzEh4O6FYDQVQDNs5I-5">
          <mxGeometry y="180" width="140" height="30" as="geometry" />
        </mxCell>
        <mxCell id="ZNvzEh4O6FYDQVQDNs5I-84" value="verifiedSeller: Boolean" style="text;strokeColor=none;fillColor=none;align=left;verticalAlign=middle;spacingLeft=4;spacingRight=4;overflow=hidden;points=[[0,0.5],[1,0.5]];portConstraint=eastwest;rotatable=0;whiteSpace=wrap;html=1;" vertex="1" parent="ZNvzEh4O6FYDQVQDNs5I-5">
          <mxGeometry y="210" width="140" height="30" as="geometry" />
        </mxCell>
        <mxCell id="ZNvzEh4O6FYDQVQDNs5I-25" value="ListingDB" style="rounded=0;whiteSpace=wrap;html=1;" vertex="1" parent="1">
          <mxGeometry x="680" y="975" width="120" height="60" as="geometry" />
        </mxCell>
        <mxCell id="ZNvzEh4O6FYDQVQDNs5I-26" style="edgeStyle=orthogonalEdgeStyle;rounded=0;orthogonalLoop=1;jettySize=auto;html=1;entryX=0;entryY=0.5;entryDx=0;entryDy=0;exitX=1;exitY=0.5;exitDx=0;exitDy=0;" edge="1" parent="1" source="ZNvzEh4O6FYDQVQDNs5I-43" target="ZNvzEh4O6FYDQVQDNs5I-25">
          <mxGeometry relative="1" as="geometry" />
        </mxCell>
        <mxCell id="ZNvzEh4O6FYDQVQDNs5I-60" style="edgeStyle=orthogonalEdgeStyle;rounded=0;orthogonalLoop=1;jettySize=auto;html=1;" edge="1" parent="1" source="ZNvzEh4O6FYDQVQDNs5I-28" target="ZNvzEh4O6FYDQVQDNs5I-57">
          <mxGeometry relative="1" as="geometry" />
        </mxCell>
        <mxCell id="ZNvzEh4O6FYDQVQDNs5I-74" style="edgeStyle=orthogonalEdgeStyle;rounded=0;orthogonalLoop=1;jettySize=auto;html=1;entryX=1;entryY=0.5;entryDx=0;entryDy=0;" edge="1" parent="1" source="ZNvzEh4O6FYDQVQDNs5I-28" target="ZNvzEh4O6FYDQVQDNs5I-64">
          <mxGeometry relative="1" as="geometry" />
        </mxCell>
        <mxCell id="ZNvzEh4O6FYDQVQDNs5I-86" style="edgeStyle=orthogonalEdgeStyle;rounded=0;orthogonalLoop=1;jettySize=auto;html=1;exitX=0.5;exitY=0;exitDx=0;exitDy=0;" edge="1" parent="1" source="ZNvzEh4O6FYDQVQDNs5I-28" target="ZNvzEh4O6FYDQVQDNs5I-5">
          <mxGeometry relative="1" as="geometry" />
        </mxCell>
        <mxCell id="ZNvzEh4O6FYDQVQDNs5I-138" style="edgeStyle=orthogonalEdgeStyle;rounded=0;orthogonalLoop=1;jettySize=auto;html=1;exitX=0.483;exitY=1.027;exitDx=0;exitDy=0;exitPerimeter=0;entryX=0.994;entryY=0.293;entryDx=0;entryDy=0;entryPerimeter=0;endArrow=none;endFill=0;" edge="1" parent="1" source="ZNvzEh4O6FYDQVQDNs5I-131" target="ZNvzEh4O6FYDQVQDNs5I-136">
          <mxGeometry relative="1" as="geometry">
            <mxPoint x="360" y="1305" as="targetPoint" />
          </mxGeometry>
        </mxCell>
        <mxCell id="ZNvzEh4O6FYDQVQDNs5I-182" style="edgeStyle=orthogonalEdgeStyle;rounded=0;orthogonalLoop=1;jettySize=auto;html=1;entryX=1;entryY=0.5;entryDx=0;entryDy=0;exitX=0;exitY=0.5;exitDx=0;exitDy=0;endArrow=none;endFill=0;startArrow=classic;startFill=1;" edge="1" parent="1" source="ZNvzEh4O6FYDQVQDNs5I-29" target="ZNvzEh4O6FYDQVQDNs5I-171">
          <mxGeometry relative="1" as="geometry" />
        </mxCell>
        <mxCell id="ZNvzEh4O6FYDQVQDNs5I-28" value="Listing" style="swimlane;fontStyle=0;childLayout=stackLayout;horizontal=1;startSize=30;horizontalStack=0;resizeParent=1;resizeParentMax=0;resizeLast=0;collapsible=1;marginBottom=0;whiteSpace=wrap;html=1;" vertex="1" parent="1">
          <mxGeometry x="410" y="840" width="140" height="330" as="geometry" />
        </mxCell>
        <mxCell id="ZNvzEh4O6FYDQVQDNs5I-29" value="id: PK" style="text;strokeColor=none;fillColor=none;align=left;verticalAlign=middle;spacingLeft=4;spacingRight=4;overflow=hidden;points=[[0,0.5],[1,0.5]];portConstraint=eastwest;rotatable=0;whiteSpace=wrap;html=1;" vertex="1" parent="ZNvzEh4O6FYDQVQDNs5I-28">
          <mxGeometry y="30" width="140" height="30" as="geometry" />
        </mxCell>
        <mxCell id="ZNvzEh4O6FYDQVQDNs5I-30" value="name: String" style="text;strokeColor=none;fillColor=none;align=left;verticalAlign=middle;spacingLeft=4;spacingRight=4;overflow=hidden;points=[[0,0.5],[1,0.5]];portConstraint=eastwest;rotatable=0;whiteSpace=wrap;html=1;" vertex="1" parent="ZNvzEh4O6FYDQVQDNs5I-28">
          <mxGeometry y="60" width="140" height="30" as="geometry" />
        </mxCell>
        <mxCell id="ZNvzEh4O6FYDQVQDNs5I-41" value="category: String" style="text;strokeColor=none;fillColor=none;align=left;verticalAlign=middle;spacingLeft=4;spacingRight=4;overflow=hidden;points=[[0,0.5],[1,0.5]];portConstraint=eastwest;rotatable=0;whiteSpace=wrap;html=1;" vertex="1" parent="ZNvzEh4O6FYDQVQDNs5I-28">
          <mxGeometry y="90" width="140" height="30" as="geometry" />
        </mxCell>
        <mxCell id="ZNvzEh4O6FYDQVQDNs5I-42" value="location: String" style="text;strokeColor=none;fillColor=none;align=left;verticalAlign=middle;spacingLeft=4;spacingRight=4;overflow=hidden;points=[[0,0.5],[1,0.5]];portConstraint=eastwest;rotatable=0;whiteSpace=wrap;html=1;" vertex="1" parent="ZNvzEh4O6FYDQVQDNs5I-28">
          <mxGeometry y="120" width="140" height="30" as="geometry" />
        </mxCell>
        <mxCell id="ZNvzEh4O6FYDQVQDNs5I-43" value="price: Money" style="text;strokeColor=none;fillColor=none;align=left;verticalAlign=middle;spacingLeft=4;spacingRight=4;overflow=hidden;points=[[0,0.5],[1,0.5]];portConstraint=eastwest;rotatable=0;whiteSpace=wrap;html=1;" vertex="1" parent="ZNvzEh4O6FYDQVQDNs5I-28">
          <mxGeometry y="150" width="140" height="30" as="geometry" />
        </mxCell>
        <mxCell id="ZNvzEh4O6FYDQVQDNs5I-44" value="brand: String" style="text;strokeColor=none;fillColor=none;align=left;verticalAlign=middle;spacingLeft=4;spacingRight=4;overflow=hidden;points=[[0,0.5],[1,0.5]];portConstraint=eastwest;rotatable=0;whiteSpace=wrap;html=1;" vertex="1" parent="ZNvzEh4O6FYDQVQDNs5I-28">
          <mxGeometry y="180" width="140" height="30" as="geometry" />
        </mxCell>
        <mxCell id="ZNvzEh4O6FYDQVQDNs5I-46" value="clothingTag: String" style="text;strokeColor=none;fillColor=none;align=left;verticalAlign=middle;spacingLeft=4;spacingRight=4;overflow=hidden;points=[[0,0.5],[1,0.5]];portConstraint=eastwest;rotatable=0;whiteSpace=wrap;html=1;" vertex="1" parent="ZNvzEh4O6FYDQVQDNs5I-28">
          <mxGeometry y="210" width="140" height="30" as="geometry" />
        </mxCell>
        <mxCell id="ZNvzEh4O6FYDQVQDNs5I-61" value="description: String" style="text;strokeColor=none;fillColor=none;align=left;verticalAlign=middle;spacingLeft=4;spacingRight=4;overflow=hidden;points=[[0,0.5],[1,0.5]];portConstraint=eastwest;rotatable=0;whiteSpace=wrap;html=1;" vertex="1" parent="ZNvzEh4O6FYDQVQDNs5I-28">
          <mxGeometry y="240" width="140" height="30" as="geometry" />
        </mxCell>
        <mxCell id="ZNvzEh4O6FYDQVQDNs5I-90" value="color: String" style="text;strokeColor=none;fillColor=none;align=left;verticalAlign=middle;spacingLeft=4;spacingRight=4;overflow=hidden;points=[[0,0.5],[1,0.5]];portConstraint=eastwest;rotatable=0;whiteSpace=wrap;html=1;" vertex="1" parent="ZNvzEh4O6FYDQVQDNs5I-28">
          <mxGeometry y="270" width="140" height="30" as="geometry" />
        </mxCell>
        <mxCell id="ZNvzEh4O6FYDQVQDNs5I-131" value="transactionLocation: String" style="text;strokeColor=none;fillColor=none;align=left;verticalAlign=middle;spacingLeft=4;spacingRight=4;overflow=hidden;points=[[0,0.5],[1,0.5]];portConstraint=eastwest;rotatable=0;whiteSpace=wrap;html=1;" vertex="1" parent="ZNvzEh4O6FYDQVQDNs5I-28">
          <mxGeometry y="300" width="140" height="30" as="geometry" />
        </mxCell>
        <mxCell id="ZNvzEh4O6FYDQVQDNs5I-53" value="Default location is seller&#39;s location" style="shape=note;whiteSpace=wrap;html=1;backgroundOutline=1;darkOpacity=0.05;" vertex="1" parent="1">
          <mxGeometry x="1130" y="1193" width="80" height="100" as="geometry" />
        </mxCell>
        <mxCell id="ZNvzEh4O6FYDQVQDNs5I-54" value="&amp;lt;&amp;lt;Enum&amp;gt;&amp;gt;&lt;div&gt;Condition&lt;/div&gt;" style="swimlane;fontStyle=0;childLayout=stackLayout;horizontal=1;startSize=30;horizontalStack=0;resizeParent=1;resizeParentMax=0;resizeLast=0;collapsible=1;marginBottom=0;whiteSpace=wrap;html=1;" vertex="1" parent="1">
          <mxGeometry x="60" y="860" width="140" height="150" as="geometry" />
        </mxCell>
        <mxCell id="ZNvzEh4O6FYDQVQDNs5I-55" value="brandNew" style="text;strokeColor=none;fillColor=none;align=left;verticalAlign=middle;spacingLeft=4;spacingRight=4;overflow=hidden;points=[[0,0.5],[1,0.5]];portConstraint=eastwest;rotatable=0;whiteSpace=wrap;html=1;" vertex="1" parent="ZNvzEh4O6FYDQVQDNs5I-54">
          <mxGeometry y="30" width="140" height="30" as="geometry" />
        </mxCell>
        <mxCell id="ZNvzEh4O6FYDQVQDNs5I-56" value="used" style="text;strokeColor=none;fillColor=none;align=left;verticalAlign=middle;spacingLeft=4;spacingRight=4;overflow=hidden;points=[[0,0.5],[1,0.5]];portConstraint=eastwest;rotatable=0;whiteSpace=wrap;html=1;" vertex="1" parent="ZNvzEh4O6FYDQVQDNs5I-54">
          <mxGeometry y="60" width="140" height="30" as="geometry" />
        </mxCell>
        <mxCell id="ZNvzEh4O6FYDQVQDNs5I-57" value="wornOff" style="text;strokeColor=none;fillColor=none;align=left;verticalAlign=middle;spacingLeft=4;spacingRight=4;overflow=hidden;points=[[0,0.5],[1,0.5]];portConstraint=eastwest;rotatable=0;whiteSpace=wrap;html=1;" vertex="1" parent="ZNvzEh4O6FYDQVQDNs5I-54">
          <mxGeometry y="90" width="140" height="30" as="geometry" />
        </mxCell>
        <mxCell id="ZNvzEh4O6FYDQVQDNs5I-58" value="damaged" style="text;strokeColor=none;fillColor=none;align=left;verticalAlign=middle;spacingLeft=4;spacingRight=4;overflow=hidden;points=[[0,0.5],[1,0.5]];portConstraint=eastwest;rotatable=0;whiteSpace=wrap;html=1;" vertex="1" parent="ZNvzEh4O6FYDQVQDNs5I-54">
          <mxGeometry y="120" width="140" height="30" as="geometry" />
        </mxCell>
        <mxCell id="ZNvzEh4O6FYDQVQDNs5I-62" value="Brand" style="swimlane;fontStyle=0;childLayout=stackLayout;horizontal=1;startSize=30;horizontalStack=0;resizeParent=1;resizeParentMax=0;resizeLast=0;collapsible=1;marginBottom=0;whiteSpace=wrap;html=1;" vertex="1" parent="1">
          <mxGeometry x="60" y="1070" width="140" height="90" as="geometry" />
        </mxCell>
        <mxCell id="ZNvzEh4O6FYDQVQDNs5I-63" value="id: PK" style="text;strokeColor=none;fillColor=none;align=left;verticalAlign=middle;spacingLeft=4;spacingRight=4;overflow=hidden;points=[[0,0.5],[1,0.5]];portConstraint=eastwest;rotatable=0;whiteSpace=wrap;html=1;" vertex="1" parent="ZNvzEh4O6FYDQVQDNs5I-62">
          <mxGeometry y="30" width="140" height="30" as="geometry" />
        </mxCell>
        <mxCell id="ZNvzEh4O6FYDQVQDNs5I-64" value="name: String" style="text;strokeColor=none;fillColor=none;align=left;verticalAlign=middle;spacingLeft=4;spacingRight=4;overflow=hidden;points=[[0,0.5],[1,0.5]];portConstraint=eastwest;rotatable=0;whiteSpace=wrap;html=1;" vertex="1" parent="ZNvzEh4O6FYDQVQDNs5I-62">
          <mxGeometry y="60" width="140" height="30" as="geometry" />
        </mxCell>
        <mxCell id="ZNvzEh4O6FYDQVQDNs5I-75" value="0..1" style="text;html=1;align=center;verticalAlign=middle;resizable=0;points=[];autosize=1;strokeColor=none;fillColor=none;" vertex="1" parent="1">
          <mxGeometry x="210" y="1110" width="40" height="30" as="geometry" />
        </mxCell>
        <mxCell id="ZNvzEh4O6FYDQVQDNs5I-77" value="Image" style="swimlane;fontStyle=0;childLayout=stackLayout;horizontal=1;startSize=30;horizontalStack=0;resizeParent=1;resizeParentMax=0;resizeLast=0;collapsible=1;marginBottom=0;whiteSpace=wrap;html=1;" vertex="1" parent="1">
          <mxGeometry x="-30" y="1280" width="140" height="150" as="geometry" />
        </mxCell>
        <mxCell id="ZNvzEh4O6FYDQVQDNs5I-130" value="id: PK" style="text;strokeColor=none;fillColor=none;align=left;verticalAlign=middle;spacingLeft=4;spacingRight=4;overflow=hidden;points=[[0,0.5],[1,0.5]];portConstraint=eastwest;rotatable=0;whiteSpace=wrap;html=1;" vertex="1" parent="ZNvzEh4O6FYDQVQDNs5I-77">
          <mxGeometry y="30" width="140" height="30" as="geometry" />
        </mxCell>
        <mxCell id="ZNvzEh4O6FYDQVQDNs5I-132" value="listingId: FK" style="text;strokeColor=none;fillColor=none;align=left;verticalAlign=middle;spacingLeft=4;spacingRight=4;overflow=hidden;points=[[0,0.5],[1,0.5]];portConstraint=eastwest;rotatable=0;whiteSpace=wrap;html=1;" vertex="1" parent="ZNvzEh4O6FYDQVQDNs5I-77">
          <mxGeometry y="60" width="140" height="30" as="geometry" />
        </mxCell>
        <mxCell id="ZNvzEh4O6FYDQVQDNs5I-78" value="url: String" style="text;strokeColor=none;fillColor=none;align=left;verticalAlign=middle;spacingLeft=4;spacingRight=4;overflow=hidden;points=[[0,0.5],[1,0.5]];portConstraint=eastwest;rotatable=0;whiteSpace=wrap;html=1;" vertex="1" parent="ZNvzEh4O6FYDQVQDNs5I-77">
          <mxGeometry y="90" width="140" height="30" as="geometry" />
        </mxCell>
        <mxCell id="ZNvzEh4O6FYDQVQDNs5I-129" value="forTryon: Boolean" style="text;strokeColor=none;fillColor=none;align=left;verticalAlign=middle;spacingLeft=4;spacingRight=4;overflow=hidden;points=[[0,0.5],[1,0.5]];portConstraint=eastwest;rotatable=0;whiteSpace=wrap;html=1;" vertex="1" parent="ZNvzEh4O6FYDQVQDNs5I-77">
          <mxGeometry y="120" width="140" height="30" as="geometry" />
        </mxCell>
        <mxCell id="ZNvzEh4O6FYDQVQDNs5I-87" value="UserDB" style="rounded=0;whiteSpace=wrap;html=1;" vertex="1" parent="1">
          <mxGeometry x="860" y="605" width="120" height="60" as="geometry" />
        </mxCell>
        <mxCell id="ZNvzEh4O6FYDQVQDNs5I-88" style="edgeStyle=orthogonalEdgeStyle;rounded=0;orthogonalLoop=1;jettySize=auto;html=1;entryX=0;entryY=0.5;entryDx=0;entryDy=0;" edge="1" parent="1" source="ZNvzEh4O6FYDQVQDNs5I-8" target="ZNvzEh4O6FYDQVQDNs5I-87">
          <mxGeometry relative="1" as="geometry" />
        </mxCell>
        <mxCell id="ZNvzEh4O6FYDQVQDNs5I-97" value="Clothing tag has country of origin" style="shape=note;whiteSpace=wrap;html=1;backgroundOutline=1;darkOpacity=0.05;" vertex="1" parent="1">
          <mxGeometry x="1100" y="1050" width="80" height="100" as="geometry" />
        </mxCell>
        <mxCell id="ZNvzEh4O6FYDQVQDNs5I-98" value="&lt;div&gt;Password&lt;/div&gt;hashed implicitly" style="shape=note;whiteSpace=wrap;html=1;backgroundOutline=1;darkOpacity=0.05;" vertex="1" parent="1">
          <mxGeometry x="1080" y="875" width="80" height="100" as="geometry" />
        </mxCell>
        <mxCell id="ZNvzEh4O6FYDQVQDNs5I-122" style="edgeStyle=orthogonalEdgeStyle;rounded=0;orthogonalLoop=1;jettySize=auto;html=1;entryX=0.5;entryY=1;entryDx=0;entryDy=0;" edge="1" parent="1" source="ZNvzEh4O6FYDQVQDNs5I-101" target="ZNvzEh4O6FYDQVQDNs5I-121">
          <mxGeometry relative="1" as="geometry" />
        </mxCell>
        <mxCell id="ZNvzEh4O6FYDQVQDNs5I-101" value="Report" style="swimlane;fontStyle=0;childLayout=stackLayout;horizontal=1;startSize=30;horizontalStack=0;resizeParent=1;resizeParentMax=0;resizeLast=0;collapsible=1;marginBottom=0;whiteSpace=wrap;html=1;" vertex="1" parent="1">
          <mxGeometry x="110" y="370" width="140" height="180" as="geometry" />
        </mxCell>
        <mxCell id="ZNvzEh4O6FYDQVQDNs5I-102" value="id: PK" style="text;strokeColor=none;fillColor=none;align=left;verticalAlign=middle;spacingLeft=4;spacingRight=4;overflow=hidden;points=[[0,0.5],[1,0.5]];portConstraint=eastwest;rotatable=0;whiteSpace=wrap;html=1;" vertex="1" parent="ZNvzEh4O6FYDQVQDNs5I-101">
          <mxGeometry y="30" width="140" height="30" as="geometry" />
        </mxCell>
        <mxCell id="ZNvzEh4O6FYDQVQDNs5I-103" value="target: FK" style="text;strokeColor=none;fillColor=none;align=left;verticalAlign=middle;spacingLeft=4;spacingRight=4;overflow=hidden;points=[[0,0.5],[1,0.5]];portConstraint=eastwest;rotatable=0;whiteSpace=wrap;html=1;" vertex="1" parent="ZNvzEh4O6FYDQVQDNs5I-101">
          <mxGeometry y="60" width="140" height="30" as="geometry" />
        </mxCell>
        <mxCell id="ZNvzEh4O6FYDQVQDNs5I-110" value="sender: FK" style="text;strokeColor=none;fillColor=none;align=left;verticalAlign=middle;spacingLeft=4;spacingRight=4;overflow=hidden;points=[[0,0.5],[1,0.5]];portConstraint=eastwest;rotatable=0;whiteSpace=wrap;html=1;" vertex="1" parent="ZNvzEh4O6FYDQVQDNs5I-101">
          <mxGeometry y="90" width="140" height="30" as="geometry" />
        </mxCell>
        <mxCell id="ZNvzEh4O6FYDQVQDNs5I-109" value="message: String" style="text;strokeColor=none;fillColor=none;align=left;verticalAlign=middle;spacingLeft=4;spacingRight=4;overflow=hidden;points=[[0,0.5],[1,0.5]];portConstraint=eastwest;rotatable=0;whiteSpace=wrap;html=1;" vertex="1" parent="ZNvzEh4O6FYDQVQDNs5I-101">
          <mxGeometry y="120" width="140" height="30" as="geometry" />
        </mxCell>
        <mxCell id="ZNvzEh4O6FYDQVQDNs5I-117" value="reason: Reason" style="text;strokeColor=none;fillColor=none;align=left;verticalAlign=middle;spacingLeft=4;spacingRight=4;overflow=hidden;points=[[0,0.5],[1,0.5]];portConstraint=eastwest;rotatable=0;whiteSpace=wrap;html=1;" vertex="1" parent="ZNvzEh4O6FYDQVQDNs5I-101">
          <mxGeometry y="150" width="140" height="30" as="geometry" />
        </mxCell>
        <mxCell id="ZNvzEh4O6FYDQVQDNs5I-111" value="&amp;lt;&amp;lt;Enum&amp;gt;&amp;gt;&lt;div&gt;Reason&lt;/div&gt;" style="swimlane;fontStyle=0;childLayout=stackLayout;horizontal=1;startSize=30;horizontalStack=0;resizeParent=1;resizeParentMax=0;resizeLast=0;collapsible=1;marginBottom=0;whiteSpace=wrap;html=1;" vertex="1" parent="1">
          <mxGeometry x="-110" y="430" width="140" height="90" as="geometry" />
        </mxCell>
        <mxCell id="ZNvzEh4O6FYDQVQDNs5I-112" value="scam" style="text;strokeColor=none;fillColor=none;align=left;verticalAlign=middle;spacingLeft=4;spacingRight=4;overflow=hidden;points=[[0,0.5],[1,0.5]];portConstraint=eastwest;rotatable=0;whiteSpace=wrap;html=1;" vertex="1" parent="ZNvzEh4O6FYDQVQDNs5I-111">
          <mxGeometry y="30" width="140" height="30" as="geometry" />
        </mxCell>
        <mxCell id="ZNvzEh4O6FYDQVQDNs5I-113" value="nsfw" style="text;strokeColor=none;fillColor=none;align=left;verticalAlign=middle;spacingLeft=4;spacingRight=4;overflow=hidden;points=[[0,0.5],[1,0.5]];portConstraint=eastwest;rotatable=0;whiteSpace=wrap;html=1;" vertex="1" parent="ZNvzEh4O6FYDQVQDNs5I-111">
          <mxGeometry y="60" width="140" height="30" as="geometry" />
        </mxCell>
        <mxCell id="ZNvzEh4O6FYDQVQDNs5I-118" style="edgeStyle=orthogonalEdgeStyle;rounded=0;orthogonalLoop=1;jettySize=auto;html=1;entryX=1;entryY=0.5;entryDx=0;entryDy=0;" edge="1" parent="1" source="ZNvzEh4O6FYDQVQDNs5I-110" target="ZNvzEh4O6FYDQVQDNs5I-112">
          <mxGeometry relative="1" as="geometry" />
        </mxCell>
        <mxCell id="ZNvzEh4O6FYDQVQDNs5I-119" style="edgeStyle=orthogonalEdgeStyle;rounded=0;orthogonalLoop=1;jettySize=auto;html=1;entryX=0.5;entryY=0;entryDx=0;entryDy=0;" edge="1" parent="1" source="ZNvzEh4O6FYDQVQDNs5I-103" target="ZNvzEh4O6FYDQVQDNs5I-5">
          <mxGeometry relative="1" as="geometry" />
        </mxCell>
        <mxCell id="ZNvzEh4O6FYDQVQDNs5I-120" value="2" style="text;html=1;align=center;verticalAlign=middle;resizable=0;points=[];autosize=1;strokeColor=none;fillColor=none;" vertex="1" parent="1">
          <mxGeometry x="500" y="490" width="30" height="30" as="geometry" />
        </mxCell>
        <mxCell id="ZNvzEh4O6FYDQVQDNs5I-121" value="ReportDB" style="rounded=0;whiteSpace=wrap;html=1;" vertex="1" parent="1">
          <mxGeometry x="120" y="160" width="120" height="60" as="geometry" />
        </mxCell>
        <mxCell id="ZNvzEh4O6FYDQVQDNs5I-124" value="Items that are not available cannot be sold" style="shape=note;whiteSpace=wrap;html=1;backgroundOutline=1;darkOpacity=0.05;" vertex="1" parent="1">
          <mxGeometry x="930" y="1193" width="80" height="100" as="geometry" />
        </mxCell>
        <mxCell id="ZNvzEh4O6FYDQVQDNs5I-125" value="ListingArchiveDB" style="rounded=0;whiteSpace=wrap;html=1;" vertex="1" parent="1">
          <mxGeometry x="680" y="1090" width="120" height="60" as="geometry" />
        </mxCell>
        <mxCell id="ZNvzEh4O6FYDQVQDNs5I-126" style="edgeStyle=orthogonalEdgeStyle;rounded=0;orthogonalLoop=1;jettySize=auto;html=1;entryX=0;entryY=0.5;entryDx=0;entryDy=0;" edge="1" parent="1" source="ZNvzEh4O6FYDQVQDNs5I-43" target="ZNvzEh4O6FYDQVQDNs5I-125">
          <mxGeometry relative="1" as="geometry" />
        </mxCell>
        <mxCell id="ZNvzEh4O6FYDQVQDNs5I-127" value="Switch databases when sold" style="shape=note;whiteSpace=wrap;html=1;backgroundOutline=1;darkOpacity=0.05;" vertex="1" parent="1">
          <mxGeometry x="900" y="1010" width="80" height="100" as="geometry" />
        </mxCell>
        <mxCell id="ZNvzEh4O6FYDQVQDNs5I-133" value="ImageMap" style="swimlane;fontStyle=0;childLayout=stackLayout;horizontal=1;startSize=30;horizontalStack=0;resizeParent=1;resizeParentMax=0;resizeLast=0;collapsible=1;marginBottom=0;whiteSpace=wrap;html=1;" vertex="1" parent="1">
          <mxGeometry x="230" y="1280" width="140" height="120" as="geometry" />
        </mxCell>
        <mxCell id="ZNvzEh4O6FYDQVQDNs5I-134" value="id: PK" style="text;strokeColor=none;fillColor=none;align=left;verticalAlign=middle;spacingLeft=4;spacingRight=4;overflow=hidden;points=[[0,0.5],[1,0.5]];portConstraint=eastwest;rotatable=0;whiteSpace=wrap;html=1;" vertex="1" parent="ZNvzEh4O6FYDQVQDNs5I-133">
          <mxGeometry y="30" width="140" height="30" as="geometry" />
        </mxCell>
        <mxCell id="ZNvzEh4O6FYDQVQDNs5I-136" value="imageId: FK" style="text;strokeColor=none;fillColor=none;align=left;verticalAlign=middle;spacingLeft=4;spacingRight=4;overflow=hidden;points=[[0,0.5],[1,0.5]];portConstraint=eastwest;rotatable=0;whiteSpace=wrap;html=1;" vertex="1" parent="ZNvzEh4O6FYDQVQDNs5I-133">
          <mxGeometry y="60" width="140" height="30" as="geometry" />
        </mxCell>
        <mxCell id="ZNvzEh4O6FYDQVQDNs5I-139" value="userId: FK" style="text;strokeColor=none;fillColor=none;align=left;verticalAlign=middle;spacingLeft=4;spacingRight=4;overflow=hidden;points=[[0,0.5],[1,0.5]];portConstraint=eastwest;rotatable=0;whiteSpace=wrap;html=1;" vertex="1" parent="ZNvzEh4O6FYDQVQDNs5I-133">
          <mxGeometry y="90" width="140" height="30" as="geometry" />
        </mxCell>
        <mxCell id="ZNvzEh4O6FYDQVQDNs5I-140" style="edgeStyle=orthogonalEdgeStyle;rounded=0;orthogonalLoop=1;jettySize=auto;html=1;entryX=1;entryY=0.5;entryDx=0;entryDy=0;endArrow=none;endFill=0;" edge="1" parent="1" source="ZNvzEh4O6FYDQVQDNs5I-136" target="ZNvzEh4O6FYDQVQDNs5I-132">
          <mxGeometry relative="1" as="geometry" />
        </mxCell>
        <mxCell id="ZNvzEh4O6FYDQVQDNs5I-151" style="edgeStyle=orthogonalEdgeStyle;rounded=0;orthogonalLoop=1;jettySize=auto;html=1;entryX=1;entryY=0.5;entryDx=0;entryDy=0;" edge="1" parent="1" source="ZNvzEh4O6FYDQVQDNs5I-141" target="ZNvzEh4O6FYDQVQDNs5I-6">
          <mxGeometry relative="1" as="geometry" />
        </mxCell>
        <mxCell id="ZNvzEh4O6FYDQVQDNs5I-141" value="Session" style="swimlane;fontStyle=0;childLayout=stackLayout;horizontal=1;startSize=30;horizontalStack=0;resizeParent=1;resizeParentMax=0;resizeLast=0;collapsible=1;marginBottom=0;whiteSpace=wrap;html=1;" vertex="1" parent="1">
          <mxGeometry x="680" y="380" width="140" height="90" as="geometry" />
        </mxCell>
        <mxCell id="ZNvzEh4O6FYDQVQDNs5I-142" value="id: PK" style="text;strokeColor=none;fillColor=none;align=left;verticalAlign=middle;spacingLeft=4;spacingRight=4;overflow=hidden;points=[[0,0.5],[1,0.5]];portConstraint=eastwest;rotatable=0;whiteSpace=wrap;html=1;" vertex="1" parent="ZNvzEh4O6FYDQVQDNs5I-141">
          <mxGeometry y="30" width="140" height="30" as="geometry" />
        </mxCell>
        <mxCell id="ZNvzEh4O6FYDQVQDNs5I-149" value="sessionToken: String" style="text;strokeColor=none;fillColor=none;align=left;verticalAlign=middle;spacingLeft=4;spacingRight=4;overflow=hidden;points=[[0,0.5],[1,0.5]];portConstraint=eastwest;rotatable=0;whiteSpace=wrap;html=1;" vertex="1" parent="ZNvzEh4O6FYDQVQDNs5I-141">
          <mxGeometry y="60" width="140" height="30" as="geometry" />
        </mxCell>
        <mxCell id="ZNvzEh4O6FYDQVQDNs5I-168" style="edgeStyle=orthogonalEdgeStyle;rounded=0;orthogonalLoop=1;jettySize=auto;html=1;entryX=0;entryY=0.5;entryDx=0;entryDy=0;" edge="1" parent="1" source="ZNvzEh4O6FYDQVQDNs5I-152">
          <mxGeometry relative="1" as="geometry">
            <mxPoint x="870" y="800" as="targetPoint" />
          </mxGeometry>
        </mxCell>
        <mxCell id="ZNvzEh4O6FYDQVQDNs5I-152" value="Preferences" style="swimlane;fontStyle=0;childLayout=stackLayout;horizontal=1;startSize=30;horizontalStack=0;resizeParent=1;resizeParentMax=0;resizeLast=0;collapsible=1;marginBottom=0;whiteSpace=wrap;html=1;" vertex="1" parent="1">
          <mxGeometry x="630" y="740" width="180" height="120" as="geometry" />
        </mxCell>
        <mxCell id="ZNvzEh4O6FYDQVQDNs5I-153" value="language: Language" style="text;strokeColor=none;fillColor=none;align=left;verticalAlign=middle;spacingLeft=4;spacingRight=4;overflow=hidden;points=[[0,0.5],[1,0.5]];portConstraint=eastwest;rotatable=0;whiteSpace=wrap;html=1;" vertex="1" parent="ZNvzEh4O6FYDQVQDNs5I-152">
          <mxGeometry y="30" width="180" height="30" as="geometry" />
        </mxCell>
        <mxCell id="ZNvzEh4O6FYDQVQDNs5I-154" value="enableSustainabilityTracker: Boolean" style="text;strokeColor=none;fillColor=none;align=left;verticalAlign=middle;spacingLeft=4;spacingRight=4;overflow=hidden;points=[[0,0.5],[1,0.5]];portConstraint=eastwest;rotatable=0;whiteSpace=wrap;html=1;" vertex="1" parent="ZNvzEh4O6FYDQVQDNs5I-152">
          <mxGeometry y="60" width="180" height="30" as="geometry" />
        </mxCell>
        <mxCell id="ZNvzEh4O6FYDQVQDNs5I-163" value="trackLocation: Boolean" style="text;strokeColor=none;fillColor=none;align=left;verticalAlign=middle;spacingLeft=4;spacingRight=4;overflow=hidden;points=[[0,0.5],[1,0.5]];portConstraint=eastwest;rotatable=0;whiteSpace=wrap;html=1;" vertex="1" parent="ZNvzEh4O6FYDQVQDNs5I-152">
          <mxGeometry y="90" width="180" height="30" as="geometry" />
        </mxCell>
        <mxCell id="ZNvzEh4O6FYDQVQDNs5I-169" value="&amp;lt;&amp;lt;Enum&amp;gt;&amp;gt;&lt;div&gt;Language&lt;/div&gt;" style="rounded=0;whiteSpace=wrap;html=1;" vertex="1" parent="1">
          <mxGeometry x="870" y="780" width="120" height="60" as="geometry" />
        </mxCell>
        <mxCell id="ZNvzEh4O6FYDQVQDNs5I-187" style="edgeStyle=orthogonalEdgeStyle;rounded=0;orthogonalLoop=1;jettySize=auto;html=1;entryX=1;entryY=0.5;entryDx=0;entryDy=0;" edge="1" parent="1" source="ZNvzEh4O6FYDQVQDNs5I-170" target="ZNvzEh4O6FYDQVQDNs5I-184">
          <mxGeometry relative="1" as="geometry" />
        </mxCell>
        <mxCell id="ZNvzEh4O6FYDQVQDNs5I-170" value="ChatRoom" style="swimlane;fontStyle=0;childLayout=stackLayout;horizontal=1;startSize=30;horizontalStack=0;resizeParent=1;resizeParentMax=0;resizeLast=0;collapsible=1;marginBottom=0;whiteSpace=wrap;html=1;" vertex="1" parent="1">
          <mxGeometry x="90" y="630" width="140" height="60" as="geometry" />
        </mxCell>
        <mxCell id="ZNvzEh4O6FYDQVQDNs5I-171" value="id: PK" style="text;strokeColor=none;fillColor=none;align=left;verticalAlign=middle;spacingLeft=4;spacingRight=4;overflow=hidden;points=[[0,0.5],[1,0.5]];portConstraint=eastwest;rotatable=0;whiteSpace=wrap;html=1;" vertex="1" parent="ZNvzEh4O6FYDQVQDNs5I-170">
          <mxGeometry y="30" width="140" height="30" as="geometry" />
        </mxCell>
        <mxCell id="ZNvzEh4O6FYDQVQDNs5I-179" value="Messages" style="swimlane;fontStyle=0;childLayout=stackLayout;horizontal=1;startSize=30;horizontalStack=0;resizeParent=1;resizeParentMax=0;resizeLast=0;collapsible=1;marginBottom=0;whiteSpace=wrap;html=1;" vertex="1" parent="1">
          <mxGeometry x="-400" y="630" width="140" height="90" as="geometry" />
        </mxCell>
        <mxCell id="ZNvzEh4O6FYDQVQDNs5I-180" value="id: PK" style="text;strokeColor=none;fillColor=none;align=left;verticalAlign=middle;spacingLeft=4;spacingRight=4;overflow=hidden;points=[[0,0.5],[1,0.5]];portConstraint=eastwest;rotatable=0;whiteSpace=wrap;html=1;" vertex="1" parent="ZNvzEh4O6FYDQVQDNs5I-179">
          <mxGeometry y="30" width="140" height="30" as="geometry" />
        </mxCell>
        <mxCell id="ZNvzEh4O6FYDQVQDNs5I-181" value="verifiedSeller: Boolean" style="text;strokeColor=none;fillColor=none;align=left;verticalAlign=middle;spacingLeft=4;spacingRight=4;overflow=hidden;points=[[0,0.5],[1,0.5]];portConstraint=eastwest;rotatable=0;whiteSpace=wrap;html=1;" vertex="1" parent="ZNvzEh4O6FYDQVQDNs5I-179">
          <mxGeometry y="60" width="140" height="30" as="geometry" />
        </mxCell>
        <mxCell id="ZNvzEh4O6FYDQVQDNs5I-200" style="edgeStyle=orthogonalEdgeStyle;rounded=0;orthogonalLoop=1;jettySize=auto;html=1;endArrow=none;endFill=0;" edge="1" parent="1" source="ZNvzEh4O6FYDQVQDNs5I-183" target="ZNvzEh4O6FYDQVQDNs5I-179">
          <mxGeometry relative="1" as="geometry" />
        </mxCell>
        <mxCell id="ZNvzEh4O6FYDQVQDNs5I-183" value="ChatMap" style="swimlane;fontStyle=0;childLayout=stackLayout;horizontal=1;startSize=30;horizontalStack=0;resizeParent=1;resizeParentMax=0;resizeLast=0;collapsible=1;marginBottom=0;whiteSpace=wrap;html=1;" vertex="1" parent="1">
          <mxGeometry x="-190" y="615" width="140" height="120" as="geometry" />
        </mxCell>
        <mxCell id="ZNvzEh4O6FYDQVQDNs5I-184" value="id: PK" style="text;strokeColor=none;fillColor=none;align=left;verticalAlign=middle;spacingLeft=4;spacingRight=4;overflow=hidden;points=[[0,0.5],[1,0.5]];portConstraint=eastwest;rotatable=0;whiteSpace=wrap;html=1;" vertex="1" parent="ZNvzEh4O6FYDQVQDNs5I-183">
          <mxGeometry y="30" width="140" height="30" as="geometry" />
        </mxCell>
        <mxCell id="ZNvzEh4O6FYDQVQDNs5I-188" value="messageId: FK" style="text;strokeColor=none;fillColor=none;align=left;verticalAlign=middle;spacingLeft=4;spacingRight=4;overflow=hidden;points=[[0,0.5],[1,0.5]];portConstraint=eastwest;rotatable=0;whiteSpace=wrap;html=1;" vertex="1" parent="ZNvzEh4O6FYDQVQDNs5I-183">
          <mxGeometry y="60" width="140" height="30" as="geometry" />
        </mxCell>
        <mxCell id="ZNvzEh4O6FYDQVQDNs5I-185" value="chatRoomId: FK" style="text;strokeColor=none;fillColor=none;align=left;verticalAlign=middle;spacingLeft=4;spacingRight=4;overflow=hidden;points=[[0,0.5],[1,0.5]];portConstraint=eastwest;rotatable=0;whiteSpace=wrap;html=1;" vertex="1" parent="ZNvzEh4O6FYDQVQDNs5I-183">
          <mxGeometry y="90" width="140" height="30" as="geometry" />
        </mxCell>
        <mxCell id="ZNvzEh4O6FYDQVQDNs5I-193" value="1" style="text;html=1;align=center;verticalAlign=middle;resizable=0;points=[];autosize=1;strokeColor=none;fillColor=none;" vertex="1" parent="1">
          <mxGeometry x="370" y="568" width="30" height="30" as="geometry" />
        </mxCell>
        <mxCell id="ZNvzEh4O6FYDQVQDNs5I-194" style="edgeStyle=orthogonalEdgeStyle;rounded=0;orthogonalLoop=1;jettySize=auto;html=1;entryX=0;entryY=0.5;entryDx=0;entryDy=0;" edge="1" parent="1" source="ZNvzEh4O6FYDQVQDNs5I-170" target="ZNvzEh4O6FYDQVQDNs5I-7">
          <mxGeometry relative="1" as="geometry">
            <mxPoint x="270" y="580" as="targetPoint" />
          </mxGeometry>
        </mxCell>
        <mxCell id="ZNvzEh4O6FYDQVQDNs5I-195" value="1" style="text;html=1;align=center;verticalAlign=middle;resizable=0;points=[];autosize=1;strokeColor=none;fillColor=none;" vertex="1" parent="1">
          <mxGeometry x="490" y="780" width="30" height="30" as="geometry" />
        </mxCell>
        <mxCell id="ZNvzEh4O6FYDQVQDNs5I-196" value="1" style="text;html=1;align=center;verticalAlign=middle;resizable=0;points=[];autosize=1;strokeColor=none;fillColor=none;" vertex="1" parent="1">
          <mxGeometry x="370" y="850" width="30" height="30" as="geometry" />
        </mxCell>
      </root>
    </mxGraphModel>
  </diagram>
</mxfile>
